<svg width="24" height="24" viewBox="0 0 24 24" fill="none" xmlns="http://www.w3.org/2000/svg">
<path d="M10.375 3.00009C10.5408 3.00009 10.6997 3.06594 10.8169 3.18315C10.9342 3.30036 11 3.45933 11 3.62509C11 3.79085 10.9342 3.94982 10.8169 4.06703C10.6997 4.18424 10.5408 4.25009 10.375 4.25009H6.625C5.99511 4.25009 5.39102 4.50031 4.94562 4.94571C4.50022 5.39111 4.25 5.9952 4.25 6.62509V17.3751C4.25 17.687 4.31143 17.9958 4.43079 18.284C4.55014 18.5721 4.72508 18.8339 4.94562 19.0545C5.16616 19.275 5.42798 19.4499 5.71613 19.5693C6.00427 19.6887 6.31311 19.7501 6.625 19.7501H17.375C17.6869 19.7501 17.9957 19.6887 18.2839 19.5693C18.572 19.4499 18.8338 19.275 19.0544 19.0545C19.2749 18.8339 19.4499 18.5721 19.5692 18.284C19.6886 17.9958 19.75 17.687 19.75 17.3751V14.1251C19.75 13.9593 19.8158 13.8004 19.9331 13.6831C20.0503 13.5659 20.2092 13.5001 20.375 13.5001C20.5408 13.5001 20.6997 13.5659 20.8169 13.6831C20.9342 13.8004 21 13.9593 21 14.1251V17.3751C21 18.3365 20.6181 19.2585 19.9383 19.9384C19.2584 20.6182 18.3364 21.0001 17.375 21.0001H6.625C5.66359 21.0001 4.74156 20.6182 4.06174 19.9384C3.38192 19.2585 3 18.3365 3 17.3751V6.62509C3 5.66368 3.38192 4.74165 4.06174 4.06183C4.74156 3.38201 5.66359 3.00009 6.625 3.00009H10.375ZM14.862 1.05809C14.9701 1.00793 15.0902 0.989703 15.2083 1.00556C15.3264 1.02142 15.4375 1.0707 15.5285 1.14759L22.7785 7.27259C22.8464 7.32996 22.9013 7.40115 22.9395 7.4814C22.9777 7.56166 22.9983 7.64915 23 7.73802C23.0017 7.82689 22.9844 7.9151 22.9493 7.99676C22.9143 8.07842 22.8621 8.15166 22.7965 8.21159L15.5465 14.8366C15.457 14.9183 15.3457 14.9723 15.2261 14.9919C15.1064 15.0115 14.9837 14.9959 14.8728 14.947C14.7619 14.8981 14.6676 14.818 14.6014 14.7164C14.5352 14.6149 14.5 14.4963 14.5 14.3751V11.5141C13.4725 11.5631 12.489 11.7491 11.481 12.2476C10.341 12.8106 9.1235 13.7951 7.772 15.5201L7.5 15.8751C7.42341 15.9771 7.31741 16.0533 7.19625 16.0934C7.0751 16.1334 6.94458 16.1354 6.82226 16.0991C6.69993 16.0628 6.59165 15.9899 6.51196 15.8902C6.43227 15.7906 6.385 15.6689 6.3765 15.5416C6.2435 13.5456 6.7705 10.8216 8.1385 8.58059C9.432 6.46159 11.5085 4.73409 14.5 4.52209V1.62509C14.5 1.38159 14.641 1.16059 14.862 1.05809ZM15.75 5.12509C15.75 5.29085 15.6842 5.44982 15.5669 5.56703C15.4497 5.68424 15.2908 5.75009 15.125 5.75009C12.331 5.75009 10.4185 7.24559 9.206 9.23209C8.3555 10.6261 7.867 12.2391 7.687 13.6821C8.794 12.4651 9.862 11.6536 10.927 11.1271C12.372 10.4126 13.7595 10.2501 15.125 10.2501C15.2908 10.2501 15.4497 10.3159 15.5669 10.4331C15.6842 10.5504 15.75 10.7093 15.75 10.8751V12.9566L21.4275 7.76809L15.75 2.97109V5.12509Z" fill="#6B7280"/>
</svg>
